<?xml version="1.0" encoding="utf-8"?>
<!-- Generator: Adobe Illustrator 23.1.0, SVG Export Plug-In . SVG Version: 6.00 Build 0)  -->
<svg version="1.1" id="Слой_1" xmlns="http://www.w3.org/2000/svg" xmlns:xlink="http://www.w3.org/1999/xlink" x="0px" y="0px"
	 viewBox="0 0 512 512" style="enable-background:new 0 0 512 512;" xml:space="preserve">
<style type="text/css">
	.st0{fill:#D75A15;}
</style>
<path class="st0" d="M299.6,156c1.2,4.3,5.6,6.8,9.8,5.6c0,0,0,0,0,0l39.7-10.9c4.2-1.2,6.7-5.5,5.6-9.8l-13.3-48.6
	c-1.2-4.2-5.5-6.7-9.8-5.6L292,97.6c-4.3,1.2-6.8,5.6-5.6,9.8c0,0,0,0,0,0L299.6,156z M328,104.3l9,33.1l-24.1,6.6l-8.9-33
	L328,104.3z"/>
<path class="st0" d="M479.2,257.6c-7.3-6.8-25.2-13.8-35-22.7c-0.7-0.6-1.5-1.1-2.4-1.5L391.6,50.2c-3.8-14-18.3-22.3-32.3-18.5
	c0,0,0,0-0.1,0L235.7,65.6c-14,3.8-22.3,18.3-18.5,32.3c0,0,0,0,0,0.1l46,167.7c-17.7,12.5-27.7,32-15.4,49.8
	c4.8,6.6,12.1,11,20.2,12c-0.6,12.1,5.6,23.6,16,29.9c9.8,5.6,20,4,30.4-1l-1.2,3c-9,22.8,2.2,42.6,7.7,52c0.7,1.2,1.5,2.7,1.8,3.3
	c0.5,5.1-1.1,10.2-4.6,14c-2.3,2.7-2.5,6.6-0.5,9.6c14.9,22.2,58.3,30.9,82.4,26c42.8-8.8,53-30.5,54-33c0.7-1.7,0.8-3.5,0.3-5.3
	c0,0-3.2-12,0-33.5c2.6-16.9,32.8-91,34.8-100.4C491.4,279.7,487.7,266.9,479.2,257.6L479.2,257.6z M232.7,93.6
	c-1.4-5.5,1.8-11.1,7.3-12.5l123.5-33.8c5.4-1.4,11,1.8,12.5,7.2l53.2,194.2c1.5,5.5-1.7,11.1-7.2,12.6c0,0,0,0,0,0l-41.7,11.5
	c-2.8-10.5-7.1-20.6-12.6-30c-13.6-20-41.2-34-58.3-18.3c-12.3,11.3-7.2,24-1.4,38.7c3.7,8.8,6.8,17.7,9.4,26.9
	c-6.6,1.9-16.2,4.5-20.6,5.4c-5,1-9.9-2.3-10.9-7.3c0,0,0-0.1,0-0.1L232.7,93.6z M411.2,299.2c-4.9,4.5-10.3,8.5-16,12
	c-4.7-7.1-8.1-14.9-10.2-23.2l9.9-2.7C400,290.3,405.5,294.9,411.2,299.2z M261,306.3c-5.8-8.4-0.7-17.2,6.9-24
	c2,5,2.3,19.2,15.3,26.3C272.8,314.1,264.6,311.5,261,306.3z M320.6,333.6c-17.3,13-24.4,12-28.6,9.7c-6-3.8-9-10.8-7.7-17.8
	c9.2-3.5,17.4-9.2,24-16.5c4-1.1,8.8-2.4,12.6-3.4C322.2,314.9,322.1,324.4,320.6,333.6z M473.7,288.8c-1.6,7.7-32,82.1-35,101.4
	c-2.1,12.1-2.2,24.5-0.4,36.7c-3.2,4.5-13.7,16-40.9,21.7c-37.1,3.6-55.8-8.8-62.9-15.3c4-6.7,5.5-14.7,4-22.4
	c-1.8-7.8-18.4-24.8-10.1-45.6c9.6-22.5,11.9-47.4,6.7-71.3c-3-12.6-7-24.9-12-36.8c-6.1-15.2-6.4-17.5-2.6-21
	c8.8-8,26.8,4.6,34.2,15.6c4.9,7.2,8.8,19.8,12.5,32c4.8,15.6,9.2,30.3,17,38.7c16.6,18,33.5,20.6,34.2,20.7c4.3,0.6,8.3-2.4,9-6.7
	c0.7-4.4-2.3-8.4-6.7-9.1c-4.5-1-8.8-2.8-12.6-5.4c9.7-6.3,18.2-14.2,25.2-23.4c2.5-3.6,1.6-8.6-2.1-11.1c-2.7-1.9-6.3-1.9-9,0
	c-2.7-2-5.9-4.6-8.9-7.1l13.2-3.6c9.9-2.7,17.4-11,19-21.2c9.3,5.8,19.6,10.8,23,13.8C472.8,274.7,474.7,281.8,473.7,288.8
	L473.7,288.8z"/>
<path class="st0" d="M106.5,284.4c3.9,2.1,8.7,0.7,10.9-3.1c0,0,0,0,0,0c20.4-36.8,20.4-69.7,0-106.6c-2.1-3.9-7-5.3-10.9-3.1
	c-3.9,2.1-5.3,7-3.1,10.9c17.7,32,17.7,59.1,0,91C101.3,277.4,102.7,282.3,106.5,284.4C106.5,284.4,106.5,284.4,106.5,284.4z"/>
<path class="st0" d="M76,265.2c3.8,2.3,8.7,1.1,11-2.7c13-21.2,13-47.9,0-69c-2.5-3.6-7.5-4.6-11.1-2c-3.3,2.3-4.4,6.7-2.6,10.3
	c9.8,16.1,9.8,36.4,0,52.6C71,258.1,72.2,263,76,265.2z"/>
<path class="st0" d="M141,299.8c3.9,2,8.8,0.4,10.7-3.6c0,0,0,0,0,0c24-47.8,24-88.6,0-136.3c-2-4-6.8-5.6-10.7-3.6
	c-4,2-5.6,6.8-3.6,10.7c21.6,43.3,21.6,78.7,0,122C135.4,292.9,137,297.8,141,299.8C141,299.8,141,299.8,141,299.8z"/>
<path class="st0" d="M175.2,314.9c3.9,2,8.7,0.4,10.7-3.6c27.7-55.4,27.7-111.4,0-166.7c-2-3.9-6.9-5.5-10.8-3.5
	c-3.9,2-5.5,6.9-3.5,10.8c25.6,51.3,25.6,101.1,0,152.4C169.8,308.3,171.4,312.9,175.2,314.9z"/>
<path class="st0" d="M232,388c15,0,29.9-0.8,44.8-2.6c4.4-0.6,7.6-4.6,7-9s-4.6-7.6-9-7c-14.2,1.7-28.5,2.6-42.8,2.6
	c-110.3,0-200-64.6-200-144c0-64.5,60.3-121.6,146.6-138.8c4-0.8,13.2-2.9,17.3-3.5c4.4-0.6,7.5-4.7,6.9-9.1
	c-0.6-4.4-4.7-7.5-9.1-6.9c-4.9,0.7-13.6,2.7-18.2,3.6C81.6,92.2,16,156,16,228C16,316.2,112.8,388,232,388L232,388z"/>
</svg>
