<svg width="76" height="76" viewBox="0 0 76 76" fill="none" xmlns="http://www.w3.org/2000/svg">
<path d="M38 0.5C17.3 0.5 0.5 17.3 0.5 38C0.5 58.7 17.3 75.5 38 75.5C58.7 75.5 75.5 58.7 75.5 38C75.5 17.3 58.7 0.5 38 0.5ZM38 60.5C35.25 60.5 33 58.25 33 55.5C33 52.75 35.25 50.5 38 50.5C40.75 50.5 43 52.75 43 55.5C43 58.25 40.75 60.5 38 60.5ZM43.725 21.725L42.05 41.775C41.875 43.875 40.125 45.5 38 45.5C35.875 45.5 34.125 43.875 33.95 41.775L32.275 21.725C32 18.375 34.625 15.5 38 15.5C41.2 15.5 43.75 18.1 43.75 21.25C43.75 21.4 43.75 21.575 43.725 21.725Z" fill="#F2750C"/>
</svg>
