<?xml version="1.0" encoding="utf-8"?>
<!-- Generator: Adobe Illustrator 23.1.0, SVG Export Plug-In . SVG Version: 6.00 Build 0)  -->
<svg version="1.1" id="Image" xmlns="http://www.w3.org/2000/svg" xmlns:xlink="http://www.w3.org/1999/xlink" x="0px" y="0px"
	 viewBox="0 0 512 512" style="enable-background:new 0 0 512 512;" xml:space="preserve">
<style type="text/css">
	.st0{fill:#D75A15;}
</style>
<g>
	<path class="st0" d="M477.9,85.3H34.1C15.3,85.3,0,100.6,0,119.5v273.1c0,18.8,15.3,34.1,34.1,34.1h443.7
		c18.8,0,34.1-15.3,34.1-34.1V119.5C512,100.6,496.7,85.3,477.9,85.3z M494.9,392.5c0,9.4-7.7,17.1-17.1,17.1H34.1
		c-9.4,0-17.1-7.7-17.1-17.1V119.5c0-9.4,7.7-17.1,17.1-17.1h443.7c9.4,0,17.1,7.7,17.1,17.1V392.5z"/>
	<path class="st0" d="M76.8,341.3H59.7c-11.3,0-11.3,17.1,0,17.1h17.1C88.1,358.4,88.1,341.3,76.8,341.3z"/>
	<path class="st0" d="M128,341.3h-17.1c-11.3,0-11.3,17.1,0,17.1H128C139.3,358.4,139.3,341.3,128,341.3z"/>
	<path class="st0" d="M179.2,341.3h-17.1c-11.3,0-11.3,17.1,0,17.1h17.1C190.5,358.4,190.5,341.3,179.2,341.3z"/>
	<path class="st0" d="M230.4,341.3h-17.1c-11.3,0-11.3,17.1,0,17.1h17.1C241.7,358.4,241.7,341.3,230.4,341.3z"/>
	<path class="st0" d="M221.9,248.3v-68.3c0-14.1-11.5-25.6-25.6-25.6H76.8c-14.1,0-25.6,11.5-25.6,25.6v68.3
		c0,14.1,11.5,25.6,25.6,25.6h119.5C210.4,273.9,221.9,262.4,221.9,248.3L221.9,248.3z M170.7,204.8h34.1v17.1h-34.1V204.8z
		 M204.8,180.1v7.7h-34.1v-16.2h25.6C201,171.5,204.8,175.3,204.8,180.1z M76.8,171.5h76.8v85.3h-34.1v-60.6c0-4.7-3.8-8.5-8.5-8.5
		H68.3v-7.7C68.3,175.3,72.1,171.5,76.8,171.5z M68.3,204.8h34.1v17.1H68.3V204.8z M68.3,248.3v-9.4h34.1v17.9H76.8
		C72.1,256.9,68.3,253,68.3,248.3z M196.3,256.9h-25.6v-17.9h34.1v9.4C204.8,253,201,256.9,196.3,256.9z"/>
	<path class="st0" d="M351.4,194.3c9.2,17,9.2,38.1,0,55.1c-5.4,10,9.6,18,15,8.2c12-22,12-49.4,0-71.4
		C361,176.3,346,184.4,351.4,194.3z"/>
	<path class="st0" d="M425.7,149.9c24,44.4,24,99.2,0.2,143.6c-7.2,9.6,8.6,19.9,14.4,9.3c27.4-49.9,27.4-111.9,0-161.8
		C434.7,130.7,418.8,140,425.7,149.9L425.7,149.9z"/>
	<path class="st0" d="M388.3,171.8c17,30.9,17,69.3,0,100.2c-5.5,10,9.5,18.1,15,8.2c19.8-36,19.8-80.7,0-116.7
		C397.8,153.7,382.8,161.9,388.3,171.8z"/>
</g>
</svg>
