<?xml version="1.0" encoding="utf-8"?>
<!-- Generator: Adobe Illustrator 23.1.0, SVG Export Plug-In . SVG Version: 6.00 Build 0)  -->
<svg version="1.1" id="Слой_1" xmlns="http://www.w3.org/2000/svg" xmlns:xlink="http://www.w3.org/1999/xlink" x="0px" y="0px"
	 viewBox="0 0 512 512" style="enable-background:new 0 0 512 512;" xml:space="preserve">
<style type="text/css">
	.st0{fill:#D75A15;}
</style>
<path class="st0" d="M468,155.1v-0.8l0,0l-16-68c-0.4-1.4-1.1-2.8-2.2-3.8l-32-32c-3.4-2.9-8.4-2.5-11.3,0.9c-2.6,3-2.6,7.4,0,10.4
	l30.4,30.4l6,25.6c-2,1.6-25.5,8.4-29,34.8c0,0.8-1.8,20.5-1.8,27.5c0,11.6,10.1,20,24,20h16v224c0,13.3-10.7,24-24,24
	s-24-10.7-24-24V284c0-47.8-36.6-87.6-84.2-91.6V56c0-4.4-3.6-8-8-8H104c-4.4,0-8,3.6-8,8v188c0,4.4,3.6,8,8,8s8-3.6,8-8V64h192v384
	H104c-4.4,0-8,3.6-8,8s3.6,8,8,8h208c4.4,0,8-3.6,8-8V208.4c38.7,4.1,68,36.7,68,75.6v140c0,22.1,17.9,40,40,40s40-17.9,40-40V156
	C468,155.6,468,155.4,468,155.1z M436,184c-3.3,0-8-1.2-8-4c0-5.2,1.2-20.7,1.6-25.8c1.4-9.4,7.9-17.3,16.9-20.5l5.5,23.2V184H436z"
	/>
<path class="st0" d="M272,216c4.4,0,8-3.6,8-8V96c0-4.4-3.6-8-8-8H144c-4.4,0-8,3.6-8,8v112c0,4.4,3.6,8,8,8H272z M152,104h112v96
	H152V104z"/>
<path class="st0" d="M111.4,429.7L240,361.9c12.8-6.7,17.7-22.6,11-35.4c0,0,0-0.1,0-0.1l-42.5-81c-6.8-12.8-22.6-17.8-35.4-11
	l-128.8,68c-12.8,6.7-17.7,22.6-11,35.4c0,0,0,0.1,0,0.1L76,418.6C82.7,431.5,98.6,436.4,111.4,429.7z M90.1,411.2l-42.6-81
	c-2.7-5-0.8-11.1,4.2-13.8c0,0,0,0,0,0l128.8-68c5-2.6,11.2-0.6,13.8,4.4l42.6,81.2c2.7,4.9,1,11.1-4,13.9c0,0,0,0,0,0L104,415.6
	C99,418.2,92.8,416.3,90.1,411.2C90.1,411.3,90.1,411.2,90.1,411.2z"/>
<path class="st0" d="M137.1,348l-15-28.4c-2-4-6.8-5.6-10.7-3.6c0,0-0.1,0-0.1,0.1l-34.2,18c-3.9,2-5.4,6.9-3.4,10.8c0,0,0,0,0,0
	l15,28.4c2.1,3.9,6.9,5.4,10.8,3.4l34.2-18C137.5,356.5,139,351.9,137.1,348z M99.2,358.8l-7.5-14.3l20-10.6l7.5,14.3L99.2,358.8z"
	/>
<path class="st0" d="M233.4,157.8c-1.7-16.9-17.9-33.6-19.8-35.4c-3.1-3.1-8.2-3.1-11.3,0c-1.9,1.8-18.1,18.5-19.8,35.4
	c0,14,11.4,25.4,25.4,25.4C222,183.2,233.4,171.8,233.4,157.8L233.4,157.8z M208,168c-4.9,0-10-4-9.5-8.6c1.5-7.1,4.7-13.7,9.5-19.2
	c4.7,5.5,8,12.1,9.5,19.2C218,164,212.9,168,208,168z"/>
<path class="st0" d="M143.4,312.9c12.1,4.1,18.9,16.9,15.4,29.2c-1.2,4.3,1.3,8.7,5.6,9.8c4.3,1.2,8.7-1.3,9.8-5.6
	c0.1-0.2,0.1-0.4,0.1-0.6c5.4-20.1-5.6-41-25.2-48c-4.1-1.6-8.8,0.4-10.4,4.6c-1.6,4.1,0.4,8.8,4.6,10.4L143.4,312.9z"/>
<path class="st0" d="M164,289.6c18.8,8.4,29.5,28.6,25.8,48.9c-0.7,4.4,2.4,8.5,6.8,9.2s8.5-2.4,9.2-6.8
	c4.7-27.2-9.5-54.2-34.6-65.8c-4-2-8.8-0.3-10.8,3.7S160,287.6,164,289.6z"/>
</svg>
