<?xml version="1.0" encoding="utf-8"?>
<!-- Generator: Adobe Illustrator 23.1.0, SVG Export Plug-In . SVG Version: 6.00 Build 0)  -->
<svg version="1.1" id="Layer_1" xmlns="http://www.w3.org/2000/svg" xmlns:xlink="http://www.w3.org/1999/xlink" x="0px" y="0px"
	 viewBox="0 0 512 512" style="enable-background:new 0 0 512 512;" xml:space="preserve">
<style type="text/css">
	.st0{fill:#D75A15;}
</style>
<path class="st0" d="M384,120c-2,0-3.9-0.7-5.4-2.1c-70.3-61.2-174.9-61.2-245.2,0c-3.3,3-8.3,2.7-11.3-0.5c-3-3.3-2.7-8.3,0.5-11.3
	l0,0c76.4-66.8,190.4-66.8,266.8,0c3.3,3,3.5,8,0.5,11.3C388.4,119.1,386.3,120,384,120z"/>
<path class="st0" d="M384,120c-3.8,0-7.1-2.7-7.8-6.4l-8-40c-0.8-4.3,2.1-8.5,6.5-9.3c4.2-0.8,8.3,1.9,9.2,6.1l8,40
	c0.9,4.3-1.9,8.6-6.2,9.4c0,0,0,0,0,0C385.1,119.9,384.5,120,384,120z"/>
<path class="st0" d="M384,120h-40c-4.4,0-8-3.6-8-8s3.6-8,8-8h40c4.4,0,8,3.6,8,8S388.4,120,384,120z"/>
<path class="st0" d="M256,456c-49.1,0-96.5-17.8-133.4-50.1c-3.3-3-3.5-8-0.5-11.3c3-3.3,8-3.5,11.3-0.5
	c70.3,61.2,174.9,61.2,245.2,0c3.3-3,8.3-2.7,11.3,0.5c3,3.3,2.7,8.3-0.5,11.3C352.5,438.2,305.1,456,256,456z"/>
<path class="st0" d="M136,448c-3.8,0-7.1-2.7-7.8-6.4l-8-40c-0.7-4.4,2.2-8.5,6.6-9.2c4.1-0.7,8.1,2,9.1,6.1l8,40
	c0.8,4.3-1.9,8.5-6.2,9.4C137.1,447.9,136.5,448,136,448L136,448z"/>
<path class="st0" d="M168,408h-40c-4.4,0-8-3.6-8-8s3.6-8,8-8h40c4.4,0,8,3.6,8,8S172.4,408,168,408z"/>
<path class="st0" d="M120,376C53.7,376,0,322.3,0,256s53.7-120,120-120s120,53.7,120,120C239.9,322.2,186.2,375.9,120,376z M120,152
	c-57.4,0-104,46.6-104,104s46.6,104,104,104s104-46.6,104-104C223.9,198.6,177.4,152.1,120,152z"/>
<path class="st0" d="M163,328c-3.8,0-7.4-1.3-10.3-3.6L120,298.2l-32.7,26.1c-7.5,5.6-18.2,4.1-23.9-3.4c-0.1-0.1-0.2-0.3-0.3-0.4
	c-3.1-4.6-3.6-10.5-1.4-15.6l15.4-36.1l-33.9-11.3C36.6,255.3,32,249,32,241.8v-2.4c0-8.2,6.1-15.2,14.2-16.4l43.8-6.2l12.5-37.5
	c2.3-6.8,8.6-11.3,15.7-11.3h3.6c7.1,0,13.5,4.6,15.7,11.3l12.5,37.5l43.8,6.2c8.1,1.2,14.2,8.2,14.2,16.4v2.4
	c0,7.1-4.6,13.5-11.3,15.7l-33.9,11.3l15.5,36.1c3.6,8.4-0.3,18.2-8.7,21.8C167.5,327.5,165.3,328,163,328L163,328z M76.5,311.2
	c-0.1,0.2-0.1,0.4,0,0.5l5.8,6.4l-5-6.3l37.6-30.1c2.9-2.3,7.1-2.3,10,0l37.6,30.1l0.8-0.1l-18.8-44.6c-1.7-4.1,0.1-8.8,4.2-10.5
	c0.2-0.1,0.4-0.2,0.6-0.2l42.2-14l0.4-3l-49.1-7.5c-3-0.4-5.5-2.5-6.5-5.4l-14-42.1l-4.2-0.4l-14.6,42.5c-1,2.9-3.5,5-6.5,5.4
	l-48.6,6.9l-0.5,3l42.5,14.6c4.2,1.4,6.4,5.9,5,10.1c-0.1,0.2-0.1,0.4-0.2,0.6L76.5,311.2z"/>
<path class="st0" d="M488,376H296c-4.4,0-8-3.6-8-8V248c0-4.4,3.6-8,8-8h192c4.4,0,8,3.6,8,8v120C496,372.4,492.4,376,488,376z
	 M304,360h176V256H304V360z"/>
<path class="st0" d="M504,256H280c-4.4,0-8-3.6-8-8v-56c0-4.4,3.6-8,8-8h224c4.4,0,8,3.6,8,8v56C512,252.4,508.4,256,504,256z
	 M288,240h208v-40H288V240z"/>
<path class="st0" d="M384,192h16v176h-16V192z"/>
<path class="st0" d="M392,200c-89.1,0-96-24.5-96-32c0-11.1,8.4-32,40-32c36.5,0,62.1,50.3,63.2,52.4c2,4,0.4,8.8-3.6,10.7
	C394.5,199.7,393.3,200,392,200z M312,167.3c1.2,2,10.6,14.6,65.8,16.5c-9.4-14-25.2-31.8-41.8-31.8
	C314.9,152,312.4,164.1,312,167.3z"/>
<path class="st0" d="M392,200c-4.4,0-8-3.5-8-8c0-1.3,0.3-2.5,0.8-3.6c1.1-2.1,26.7-52.4,63.2-52.4c31.6,0,40,20.9,40,32
	C488,175.5,481.1,200,392,200z M448,152c-16.7,0-32.5,17.8-41.9,31.8c55.2-1.9,64.6-14.5,65.8-16.5C471.6,163.5,468.8,152,448,152
	L448,152z"/>
<path class="st0" d="M424,232c-4.4,0-8-3.6-8-8c0-17.4-25.7-24.2-26-24.2c-4.3-1.1-6.9-5.4-5.8-9.7c1.1-4.3,5.4-6.9,9.7-5.8l0,0
	c1.6,0.4,38.1,9.9,38.1,39.8C432,228.4,428.4,232,424,232L424,232z"/>
<path class="st0" d="M360,232c-4.4,0-8-3.6-8-8c0-29.9,36.5-39.4,38.1-39.8c4.3-1.1,8.6,1.5,9.7,5.8c1.1,4.3-1.5,8.6-5.8,9.7
	c-0.3,0.1-26,6.8-26,24.2C368,228.4,364.4,232,360,232L360,232z"/>
</svg>
