<svg width="16" height="23" viewBox="0 0 16 23" fill="none" xmlns="http://www.w3.org/2000/svg">
<path d="M1.46553 0H16V0.0308104C15.1438 1.3762 14.6604 2.09511 14.5496 2.18754H10.6667C11.2005 2.82429 11.5631 3.59969 11.7545 4.51373H15.8942C15.9446 4.524 15.9698 4.54454 15.9698 4.57535C15.0431 5.99263 14.5697 6.70127 14.5496 6.70127H11.8602C11.7998 7.43045 11.4574 8.30855 10.8329 9.33557C10.0069 10.3729 9.21624 11.0455 8.46081 11.3536C7.05068 12.0417 5.70098 12.3858 4.41171 12.3858V12.4166C4.41171 12.5193 7.32767 16.0471 13.1596 23H9.30689C3.62606 16.2525 0.785647 12.8634 0.785647 12.8326V10.7837L0.815864 10.7066C1.31948 10.7785 1.90872 10.8145 2.58357 10.8145C5.76645 10.8145 7.74567 9.76178 8.52125 7.6564C8.64212 7.34829 8.70255 7.02992 8.70255 6.70127H0.0604344C0.0201448 6.70127 0 6.68073 0 6.63965C0.956878 5.22237 1.44539 4.51373 1.46553 4.51373H8.32484V4.48292C7.93201 3.67158 7.17155 3.03996 6.04344 2.58808C5.23765 2.32105 4.51243 2.18754 3.8678 2.18754H0.0302172V2.11052C0.956878 0.703505 1.43532 0 1.46553 0Z" fill="#333333"/>
</svg>
